<svg xmlns="http://www.w3.org/2000/svg" xmlns:xlink="http://www.w3.org/1999/xlink" width="500" zoomAndPan="magnify" viewBox="0 0 375 374.999991" height="500" preserveAspectRatio="xMidYMid meet" version="1.0"><defs><g/></defs><rect x="-37.5" width="450" fill="#ffffff" y="-37.499999" height="449.999989" fill-opacity="1"/><rect x="-37.5" width="450" fill="#ffffff" y="-37.499999" height="449.999989" fill-opacity="1"/><g fill="#000000" fill-opacity="1"><g transform="translate(116.839002, 162.571453)"><g><path d="M 12.1875 0.269531 C 16.816406 0.269531 19.582031 -2.707031 18.28125 -5.796875 L 18.199219 -5.796875 C 17.332031 -4.496094 15.734375 -3.519531 13.703125 -3.519531 C 8.476562 -3.519531 3.519531 -9.480469 3.519531 -17.523438 C 3.519531 -22.585938 6.203125 -26.082031 7.855469 -26.082031 C 10.886719 -26.082031 15.03125 -25.1875 17.847656 -20.800781 L 17.929688 -20.800781 L 17.929688 -27.082031 L 6.5 -27.082031 C 2.816406 -24.320312 1.082031 -19.253906 1.082031 -14.082031 C 1.082031 -6.960938 5.335938 0.269531 12.1875 0.269531 Z M 12.1875 0.269531 "/></g></g></g><g fill="#000000" fill-opacity="1"><g transform="translate(136.256855, 162.571453)"><g><path d="M 1.082031 -13.566406 C 1.082031 -5.253906 5.039062 0.269531 10.941406 0.269531 C 16.871094 0.269531 20.828125 -5.253906 20.828125 -13.566406 C 20.828125 -21.828125 16.871094 -27.351562 10.941406 -27.351562 C 5.039062 -27.351562 1.082031 -21.828125 1.082031 -13.566406 Z M 8.585938 -25.296875 C 12.675781 -25.296875 16.304688 -20.582031 17.628906 -13.515625 C 18.957031 -6.445312 17.171875 -1.734375 13.109375 -1.734375 C 9.019531 -1.734375 5.390625 -6.445312 4.0625 -13.515625 C 2.734375 -20.609375 4.523438 -25.296875 8.585938 -25.296875 Z M 8.585938 -25.296875 "/></g></g></g><g fill="#000000" fill-opacity="1"><g transform="translate(158.166258, 162.571453)"><g><path d="M 1.625 0 L 11.617188 0 C 16.359375 0 20.042969 -6.878906 20.042969 -13.542969 C 20.042969 -20.3125 16.65625 -27.082031 7.3125 -27.082031 L 1.625 -27.082031 Z M 2.898438 -26.109375 L 6.609375 -26.109375 C 13.488281 -26.109375 16.277344 -19.039062 16.277344 -12.375 C 16.277344 -6.175781 14.027344 -0.976562 10.453125 -0.976562 C 4.117188 -0.976562 3.007812 -15.300781 2.898438 -20.878906 Z M 2.898438 -26.109375 "/></g></g></g><g fill="#000000" fill-opacity="1"><g transform="translate(179.290288, 162.571453)"><g><path d="M 1.082031 -14.082031 C 1.082031 -6.960938 5.417969 0.269531 12.269531 0.269531 C 16.898438 0.269531 19.582031 -2.707031 18.28125 -5.796875 L 18.199219 -5.796875 C 17.332031 -4.496094 15.734375 -3.519531 13.703125 -3.519531 C 8.585938 -3.519531 3.710938 -9.234375 3.519531 -17.0625 L 5.171875 -17.0625 C 8.992188 -17.0625 11.726562 -15.679688 12.890625 -13.8125 L 12.972656 -13.8125 L 14.707031 -18.0625 L 3.519531 -18.0625 C 3.710938 -22.832031 6.257812 -26.082031 7.855469 -26.082031 C 10.886719 -26.082031 15.03125 -25.1875 17.847656 -20.800781 L 17.929688 -20.800781 L 17.929688 -27.082031 L 6.5 -27.082031 C 2.816406 -24.320312 1.082031 -19.253906 1.082031 -14.082031 Z M 1.082031 -14.082031 "/></g></g></g><g fill="#000000" fill-opacity="1"><g transform="translate(198.708141, 162.571453)"><g><path d="M 12.1875 0.269531 C 16.816406 0.269531 19.582031 -2.707031 18.28125 -5.796875 L 18.199219 -5.796875 C 17.332031 -4.496094 15.734375 -3.519531 13.703125 -3.519531 C 8.476562 -3.519531 3.519531 -9.480469 3.519531 -17.523438 C 3.519531 -22.585938 6.203125 -26.082031 7.855469 -26.082031 C 10.886719 -26.082031 15.03125 -25.1875 17.847656 -20.800781 L 17.929688 -20.800781 L 17.929688 -27.082031 L 6.5 -27.082031 C 2.816406 -24.320312 1.082031 -19.253906 1.082031 -14.082031 C 1.082031 -6.960938 5.335938 0.269531 12.1875 0.269531 Z M 12.1875 0.269531 "/></g></g></g><g fill="#000000" fill-opacity="1"><g transform="translate(218.125994, 162.571453)"><g><path d="M 8.667969 0 L 8.667969 -0.0820312 C 3.820312 -6.257812 2.898438 -14.976562 2.898438 -20.828125 C 4.304688 -18.496094 6.554688 -16.898438 8.339844 -14.894531 C 11.105469 -11.78125 13.324219 -8.367188 13.324219 -4.632812 C 13.324219 -2.003906 12.675781 0 12.675781 0 L 18.46875 0 C 19.824219 -7.449219 13.378906 -11.863281 8.042969 -16.601562 C 9.074219 -16.304688 10.425781 -16.277344 11.753906 -16.277344 C 15.519531 -16.277344 18.144531 -18.847656 18.144531 -22.261719 C 18.144531 -25.675781 15.273438 -27.082031 11.945312 -27.082031 L 1.625 -27.082031 L 1.625 0 Z M 2.898438 -26.109375 L 8.042969 -26.109375 C 12.214844 -26.109375 14.082031 -23.535156 14.082031 -21.152344 C 14.082031 -18.929688 12.808594 -17.171875 10.5625 -17.171875 C 6.28125 -17.171875 2.898438 -21.964844 2.898438 -23.371094 Z M 2.898438 -26.109375 "/></g></g></g><g fill="#000000" fill-opacity="1"><g transform="translate(237.868836, 162.571453)"><g><path d="M 2.652344 0 L 7.691406 0 L 7.691406 -0.0820312 C 5.984375 -2.410156 5.253906 -4.683594 5.253906 -8.421875 C 5.253906 -9.964844 5.417969 -11.320312 5.714844 -12.539062 L 16.925781 -12.539062 C 16.195312 -8.234375 14.707031 -3.710938 11.835938 -0.0820312 L 11.835938 0 L 18.902344 0 L 18.902344 -27.082031 L 3.898438 -27.082031 L 3.898438 -20.800781 L 3.980469 -20.800781 C 5.144531 -23.074219 7.339844 -24.890625 10.101562 -25.675781 C 10.128906 -25.511719 10.15625 -25.296875 10.15625 -24.996094 C 10.15625 -20.421875 1.082031 -14.21875 1.082031 -5.6875 C 1.082031 -3.25 1.410156 -1.816406 2.652344 0 Z M 5.984375 -13.542969 C 7.3125 -18.011719 11.996094 -21.179688 11.183594 -25.917969 C 12.890625 -26.214844 15.898438 -26.082031 17.605469 -26.082031 L 17.605469 -20.828125 C 17.605469 -18.6875 17.496094 -16.167969 17.089844 -13.542969 Z M 5.984375 -13.542969 "/></g></g></g><g fill="#000000" fill-opacity="1"><g transform="translate(258.397052, 162.571453)"><g><path d="M 1.625 -27.082031 L 1.625 0 L 8.695312 0 L 8.695312 -0.0820312 C 4.792969 -5.039062 3.441406 -11.617188 3.058594 -17.0625 L 4.765625 -17.0625 C 8.585938 -17.0625 11.320312 -15.679688 12.484375 -13.8125 L 12.566406 -13.8125 L 14.300781 -18.0625 L 3.007812 -18.0625 C 2.953125 -19.039062 2.925781 -19.960938 2.925781 -20.828125 L 2.898438 -26.082031 L 8.367188 -26.082031 C 12.511719 -26.082031 15.191406 -23.859375 16.765625 -20.800781 L 16.84375 -20.800781 L 16.84375 -27.082031 Z M 1.625 -27.082031 "/></g></g></g><g fill="#000000" fill-opacity="1"><g transform="translate(276.054575, 162.571453)"><g><path d="M 0.894531 -20.746094 C 2.4375 -24.238281 6.554688 -26.160156 9.480469 -26.160156 L 9.480469 -18.957031 C 9.480469 -15.574219 9.425781 -3.277344 6.230469 -0.0820312 L 6.230469 0 L 14 0 L 14 -0.0820312 C 10.804688 -3.277344 10.75 -15.574219 10.75 -18.957031 L 10.75 -26.160156 C 13.675781 -26.160156 17.792969 -24.238281 19.335938 -20.746094 L 19.417969 -20.746094 L 19.417969 -27.082031 L 0.8125 -27.082031 L 0.8125 -20.746094 Z M 0.894531 -20.746094 "/></g></g></g><g fill="#000000" fill-opacity="1"><g transform="translate(296.284889, 162.571453)"><g><path d="M 1.082031 -14.082031 C 1.082031 -6.960938 5.417969 0.269531 12.269531 0.269531 C 16.898438 0.269531 19.582031 -2.707031 18.28125 -5.796875 L 18.199219 -5.796875 C 17.332031 -4.496094 15.734375 -3.519531 13.703125 -3.519531 C 8.585938 -3.519531 3.710938 -9.234375 3.519531 -17.0625 L 5.171875 -17.0625 C 8.992188 -17.0625 11.726562 -15.679688 12.890625 -13.8125 L 12.972656 -13.8125 L 14.707031 -18.0625 L 3.519531 -18.0625 C 3.710938 -22.832031 6.257812 -26.082031 7.855469 -26.082031 C 10.886719 -26.082031 15.03125 -25.1875 17.847656 -20.800781 L 17.929688 -20.800781 L 17.929688 -27.082031 L 6.5 -27.082031 C 2.816406 -24.320312 1.082031 -19.253906 1.082031 -14.082031 Z M 1.082031 -14.082031 "/></g></g></g><g fill="#000000" fill-opacity="1"><g transform="translate(315.702742, 162.571453)"><g><path d="M 8.667969 0 L 8.667969 -0.0820312 C 3.820312 -6.257812 2.898438 -14.976562 2.898438 -20.828125 C 4.304688 -18.496094 6.554688 -16.898438 8.339844 -14.894531 C 11.105469 -11.78125 13.324219 -8.367188 13.324219 -4.632812 C 13.324219 -2.003906 12.675781 0 12.675781 0 L 18.46875 0 C 19.824219 -7.449219 13.378906 -11.863281 8.042969 -16.601562 C 9.074219 -16.304688 10.425781 -16.277344 11.753906 -16.277344 C 15.519531 -16.277344 18.144531 -18.847656 18.144531 -22.261719 C 18.144531 -25.675781 15.273438 -27.082031 11.945312 -27.082031 L 1.625 -27.082031 L 1.625 0 Z M 2.898438 -26.109375 L 8.042969 -26.109375 C 12.214844 -26.109375 14.082031 -23.535156 14.082031 -21.152344 C 14.082031 -18.929688 12.808594 -17.171875 10.5625 -17.171875 C 6.28125 -17.171875 2.898438 -21.964844 2.898438 -23.371094 Z M 2.898438 -26.109375 "/></g></g></g><g fill="#000000" fill-opacity="1"><g transform="translate(335.445585, 162.571453)"><g><path d="M 1.082031 -6.796875 C 1.082031 -2.574219 4.902344 0.269531 10.074219 0.269531 C 15.625 0.269531 19.851562 -3.441406 19.851562 -8.855469 C 19.851562 -19.363281 4.035156 -18.199219 4.035156 -24.835938 C 4.035156 -25.347656 4.277344 -25.917969 4.523438 -26.082031 C 9.074219 -26.082031 14.273438 -25.566406 18.578125 -20.800781 L 18.660156 -20.800781 L 18.660156 -27.082031 L 3.765625 -27.082031 C 3.058594 -26.59375 2.492188 -25.648438 2.492188 -24.535156 C 2.492188 -16.84375 15.871094 -15.652344 15.871094 -6.796875 C 15.871094 -3.386719 13.894531 -0.757812 10.046875 -0.757812 C 6.390625 -0.757812 4.738281 -3.332031 4.738281 -5.46875 C 4.738281 -7.773438 6.148438 -9.964844 8.640625 -9.964844 C 9.019531 -9.964844 9.398438 -9.914062 9.832031 -9.804688 C 9.964844 -10.34375 9.425781 -12.648438 6.230469 -12.648438 C 4.171875 -12.648438 1.082031 -11.105469 1.082031 -6.796875 Z M 1.082031 -6.796875 "/></g></g></g><g fill="#000000" fill-opacity="1"><g transform="translate(4.880652, 218.824886)"><g><path d="M 8.203125 -48.730469 C 8.203125 -17.554688 29.039062 3.28125 60.214844 3.28125 C 91.386719 3.28125 112.222656 -17.554688 112.222656 -48.730469 L 110.253906 -48.730469 C 110.253906 -21.820312 92.863281 -4.59375 67.761719 -4.59375 C 36.585938 -4.59375 16.40625 -27.398438 16.40625 -55.785156 C 16.40625 -79.410156 36.257812 -98.769531 60.542969 -98.769531 C 91.058594 -98.769531 96.800781 -81.707031 92.371094 -69.566406 L 78.753906 -31.664062 L 80.722656 -31.664062 L 105.496094 -100.738281 L 103.527344 -100.738281 C 103.527344 -100.738281 100.082031 -97.457031 93.847656 -97.457031 C 83.347656 -97.457031 78.261719 -100.738281 60.214844 -100.738281 C 29.039062 -100.738281 8.203125 -79.902344 8.203125 -48.730469 Z M 8.203125 -48.730469 "/></g></g></g><g fill="#000000" fill-opacity="1"><g transform="translate(187.496798, 169.092469)"><g><path d="M -8.203125 48.730469 C -8.203125 17.554688 -29.039062 -3.28125 -60.214844 -3.28125 C -91.386719 -3.28125 -112.222656 17.554688 -112.222656 48.730469 L -110.253906 48.730469 C -110.253906 21.820312 -92.863281 4.59375 -67.761719 4.59375 C -36.585938 4.59375 -16.40625 27.398438 -16.40625 55.785156 C -16.40625 79.410156 -36.257812 98.769531 -60.542969 98.769531 C -91.058594 98.769531 -96.800781 81.707031 -92.371094 69.566406 L -78.753906 31.664062 L -80.722656 31.664062 L -105.496094 100.738281 L -103.527344 100.738281 C -103.527344 100.738281 -100.082031 97.457031 -93.847656 97.457031 C -83.347656 97.457031 -78.261719 100.738281 -60.214844 100.738281 C -29.039062 100.738281 -8.203125 79.902344 -8.203125 48.730469 Z M -8.203125 48.730469 "/></g></g></g></svg>